# xmcd
#
# Track frame offsets:
#	150
#	16370
#	30571
#	48469
#	64286
#	78752
#	91727
#	106754
#	118147
#	133950
#
# Disc length: 2015 seconds
#
# Revision: 1
# Processed by: cddbd v1.5.2PL0 Copyright (c) Steve Scherf et al.
# Submitted via: audiograbber 1.83.01
#
DISCID=7c07dd0a
DTITLE=Sherrill Douglas - I want you to know
DYEAR=1999
DGENRE=Country
TTITLE0=I might even let you drive my truck
TTITLE1=Two empty arms
TTITLE2=Dancing in the kitchen with nothing but the radio on
TTITLE3=Love me like a slow dance
TTITLE4=I hear what you're not saying
TTITLE5=Pack your lies and go
TTITLE6=Heartbreak road
TTITLE7=You're gonna have to do better than that
TTITLE8=Cold and lonesome life
TTITLE9=I want you to know
EXTD=
EXTT0=
EXTT1=
EXTT2=
EXTT3=
EXTT4=
EXTT5=
EXTT6=
EXTT7=
EXTT8=
EXTT9=
PLAYORDER=
